# xmcd CD database file
#
# Track frame offsets:
#	150
#	12898
#	36347
#	57011
#	75826
#	91975
#	114101
#	125362
#	151346
#	170809
#	189519
#	206615
#
# Disc length: 3215 seconds
#
# Revision: 0
# Processed by: cddbd v1.5.2PL0 Copyright (c) Steve Scherf et al.
# Submitted via: CDex 1.70beta2
#
DISCID=8b0c8d0c
DTITLE=キセル - magic hour
DYEAR=2008
DGENRE=ろっく
TTITLE0=マジックアワー
TTITLE1=手紙
TTITLE2=春の背中
TTITLE3=枯れ木に花
TTITLE4=サマーサン
TTITLE5=君の犬
TTITLE6=窓辺
TTITLE7=眠る人
TTITLE8=ビューティフル　デイ
TTITLE9=同じ夢
TTITLE10=緑の日
TTITLE11=写真
EXTD=YEAR: 2008
EXTT0=
EXTT1=
EXTT2=
EXTT3=
EXTT4=
EXTT5=
EXTT6=
EXTT7=
EXTT8=
EXTT9=
EXTT10=
EXTT11=
PLAYORDER=
